<?xml version="1.0" encoding="UTF-8"?>
<svg xmlns="http://www.w3.org/2000/svg" version="1.1" viewBox="0 0 1080 1080">
  <defs>
    <style>
      .cls-1 {
        fill: #e84e1e;
      }

      .cls-1, .cls-2, .cls-3, .cls-4, .cls-5, .cls-6 {
        stroke-width: 0px;
      }

      .cls-2 {
        fill: #ec008c;
      }

      .cls-3 {
        fill: #ffe30f;
      }

      .cls-4 {
        fill: #12100b;
      }

      .cls-7 {
        isolation: isolate;
      }

      .cls-5, .cls-6 {
        fill: #fff;
      }

      .cls-6 {
        mix-blend-mode: soft-light;
      }

      .cls-8 {
        display: none;
      }
    </style>
  </defs>
  <g class="cls-7">
    <g id="Ebene_2" data-name="Ebene 2" class="cls-8">
      <path class="cls-2" d="M540,10c71.55,0,140.96,14.01,206.3,41.65,63.11,26.69,119.79,64.91,168.47,113.59,48.68,48.68,86.89,105.36,113.59,168.47,27.63,65.33,41.65,134.74,41.65,206.3s-14.01,140.96-41.65,206.3c-26.69,63.11-64.91,119.79-113.59,168.47s-105.36,86.89-168.47,113.59c-65.33,27.63-134.74,41.65-206.3,41.65s-140.96-14.01-206.3-41.65c-63.11-26.69-119.79-64.91-168.47-113.59-48.68-48.68-86.89-105.36-113.59-168.47-27.63-65.33-41.65-134.74-41.65-206.3s14.01-140.96,41.65-206.3c26.69-63.11,64.91-119.79,113.59-168.47,48.68-48.68,105.36-86.89,168.47-113.59,65.33-27.63,134.74-41.65,206.3-41.65M540,0C241.77,0,0,241.77,0,540s241.77,540,540,540,540-241.77,540-540S838.23,0,540,0h0Z"/>
    </g>
    <g id="Ebene_1" data-name="Ebene 1">
      <g>
        <path class="cls-3" d="M680.65,234.09c57.29,47.53,105.42,115.44,140.57,183.79,53.21,103.45,92.57,226.3,59.79,338.7-27.71,95.03-105.08,166.81-192.34,197.45-87.26,30.64-185.97,31.62-274.8,5.34-87.46-25.88-174.2-85.74-208.4-177.07-12.28-32.8-16.47-68.48-17.86-103.79-6.53-165.49,48.51-332.41,150.04-455.04,11.87-14.33,35.57-7.36,45.87,8.51,10.3,15.87,11,36.54,11.33,55.89-.8-58.15,15.93-116.3,47-163.39,5.62-8.51,12.13-17.03,21.15-20.74,18.98-7.81,38.93,8.46,52.72,24.82,34.74,41.23,60.9,90.96,75.93,144.34-3.28-30.93-12.32-49.83-9.76-80.8,33.86-17.6,100.77,37.31,98.75,41.97"/>
        <path class="cls-6" d="M680.65,234.09c2.02-4.66-64.9-59.58-98.75-41.97,0,.06,0,.11-.01.17.97,10.63,3.98,20.14,9.43,26.96,165.93,153.6,251.43,352.18,281.41,561.1,3.07-7.77,5.92-15.65,8.29-23.76,32.78-112.39-6.58-235.25-59.79-338.7-35.16-68.36-83.28-136.27-140.57-183.79Z"/>
        <path class="cls-4" d="M450.44,975.95c-12.97-2.66-25.86-5.87-38.62-9.65-102.23-30.25-181.9-98.09-213.12-181.47-10.77-28.78-16.59-62.47-18.31-106.03-6.62-167.86,48.67-335.5,151.69-459.94,6-7.25,14.79-10.93,24.74-10.35,12.68.72,25.54,8.41,32.76,19.54.89,1.37,1.71,2.76,2.47,4.18,6.95-40.12,21.88-78.54,43.77-111.71,6.3-9.55,13.62-19,24.43-23.45,18.38-7.56,40.04,1.97,60.99,26.85,20.86,24.75,38.72,52.62,53,82.45-.12-4.68,0-9.6.43-14.85.21-2.47,1.67-4.67,3.87-5.81,33.55-17.44,88.23,23.56,101.04,35.5,3.11,2.9,5.97,5.77,7.4,8.77,66.39,55.7,113.09,131.02,140.65,184.61,68.02,132.25,88.31,247.99,60.3,344.02-26.68,91.48-102.12,168.98-196.88,202.24-75.65,26.56-159.75,31.67-240.63,15.1ZM359.21,223.37c-1.08-.22-2.16-.37-3.23-.43-3.71-.22-8.93.5-12.77,5.14-100.79,121.73-154.87,285.8-148.39,450.15,1.66,41.98,7.19,74.24,17.41,101.54,29.64,79.16,105.78,143.71,203.68,172.67,89.39,26.44,185.42,24.59,270.36-5.23,90.44-31.75,162.4-105.57,187.79-192.65,26.94-92.36,6.99-204.52-59.28-333.37-27.19-52.86-73.33-127.26-138.76-181.54-1.25-1.04-2.08-2.43-2.43-3.94-7.13-9.76-57.91-47.01-84.8-38.65-.8,16.38,1.82,29.21,4.81,43.88,1.95,9.56,3.97,19.46,5.21,31.21.39,3.73-2.13,7.15-5.82,7.86-3.69.71-7.3-1.52-8.32-5.14-14.72-52.29-40.48-101.27-74.49-141.64-9.6-11.39-28.14-29.5-44.44-22.79-7.19,2.96-12.84,10.42-17.87,18.04-30.32,45.94-46.59,102.52-45.81,159.31.05,3.99-3.13,7.26-7.12,7.32-3.98.05-7.27-3.12-7.33-7.1-.28-16.66-.63-37.39-10.16-52.08-4.11-6.33-11.15-11.09-18.25-12.55ZM674.01,231.24s0,0,0,0c0,0,0,0,0,0ZM674.01,231.22s0,.01,0,.02c0,0,0-.01,0-.02Z"/>
        <circle class="cls-4" cx="631.86" cy="499" r="56.81"/>
        <circle class="cls-4" cx="394.21" cy="516.92" r="56.81"/>
        <g>
          <path class="cls-1" d="M681.45,437.22c-7.55,11.24-15.66,22.1-24.31,32.53"/>
          <path class="cls-4" d="M656.05,475.05c-.84-.17-1.66-.55-2.37-1.14-2.3-1.91-2.62-5.33-.71-7.63,8.49-10.23,16.56-21.02,23.98-32.09,1.67-2.49,5.04-3.15,7.52-1.48,2.49,1.67,3.15,5.03,1.48,7.52-7.63,11.37-15.92,22.46-24.64,32.97-1.32,1.59-3.37,2.24-5.26,1.85Z"/>
        </g>
        <g>
          <path class="cls-1" d="M633.45,423.2c-2.01,12.63-4.03,25.26-6.04,37.88"/>
          <path class="cls-4" d="M626.31,466.4c-2.83-.58-4.72-3.29-4.26-6.16l6.04-37.89c.47-2.96,3.25-4.97,6.21-4.5,3.02.47,4.97,3.25,4.5,6.21l-6.04,37.89c-.47,2.96-3.25,4.97-6.21,4.5-.08-.01-.16-.03-.24-.04Z"/>
        </g>
        <g>
          <path class="cls-1" d="M599.95,469.47c-3.64-9.32-9.91-17.6-17.88-23.65"/>
          <path class="cls-4" d="M598.87,474.78c-1.74-.36-3.27-1.56-3.96-3.34-3.26-8.34-8.98-15.9-16.11-21.3-2.39-1.81-2.85-5.21-1.05-7.59,1.81-2.39,5.21-2.86,7.59-1.05,8.83,6.69,15.62,15.67,19.66,25.99,1.09,2.79-.29,5.93-3.07,7.02-1.01.4-2.07.47-3.06.26Z"/>
        </g>
        <g>
          <path class="cls-1" d="M450.26,455.42c-11.29,9.8-21.24,21.15-29.47,33.63"/>
          <path class="cls-4" d="M419.71,494.36c-.66-.13-1.3-.39-1.89-.79-2.5-1.65-3.19-5.01-1.54-7.51,8.51-12.91,18.75-24.6,30.44-34.74,2.26-1.96,5.68-1.72,7.64.54,1.96,2.26,1.72,5.68-.54,7.64-10.94,9.49-20.52,20.43-28.49,32.52-1.26,1.9-3.51,2.76-5.61,2.33Z"/>
        </g>
        <g>
          <path class="cls-1" d="M400.13,440.22c-2.13,11-4.27,21.99-6.4,32.99"/>
          <path class="cls-4" d="M392.64,478.52c-2.91-.6-4.8-3.42-4.23-6.34l6.4-32.99c.57-2.94,3.41-4.86,6.35-4.29,2.92.52,4.86,3.41,4.29,6.35l-6.4,32.99c-.57,2.94-3.41,4.86-6.35,4.29h-.06Z"/>
        </g>
        <g>
          <path class="cls-1" d="M363.65,481.59c-6.76-13.96-16.44-26.49-28.23-36.56"/>
          <path class="cls-4" d="M362.57,486.9c-1.6-.33-3.03-1.37-3.79-2.95-6.4-13.23-15.7-25.26-26.88-34.8-2.28-1.94-2.55-5.36-.6-7.64,1.94-2.27,5.36-2.55,7.64-.6,12.31,10.5,22.54,23.75,29.59,38.32,1.3,2.69.18,5.94-2.52,7.24-1.11.54-2.32.66-3.45.43Z"/>
        </g>
        <g>
          <path class="cls-1" d="M491.47,573.93c-18.82,5.34-31.75,23.57-36.26,42.61-4.5,19.04-2.04,38.96.77,58.31,4.8,33.06,11.1,67.31,30.85,94.26,19.75,26.95,56.86,44.09,87.5,30.77,22.98-9.99,36.7-34.05,43.94-58.04,10.22-33.88,10.58-70.68,1.02-104.76-6.39-22.78-17.76-45.08-36.71-59.26-18.95-14.17-62.58-19.83-91.11-3.9"/>
          <path class="cls-4" d="M551.74,808.77c-26.89,0-53.37-16.71-68.34-37.14-20.33-27.74-26.77-62.71-31.63-96.16-2.98-20.52-5.28-40.55-.7-59.9,4.21-17.8,16.6-39.04,38.76-45.58,29.53-16.21,74.56-11.07,95.3,4.44,17.64,13.19,30.51,33.89,38.26,61.51,9.72,34.64,9.35,72.69-1.04,107.14-6.43,21.3-19.68,49.12-46.32,60.71-7.92,3.44-16.13,4.99-24.29,4.99ZM533,568.56c-13.95,0-28.13,2.76-39.46,9.09-.29.16-.6.29-.91.38-15.58,4.43-28.65,19.93-33.28,39.5-4.23,17.9-2.02,37.04.84,56.72,4.7,32.38,10.9,66.19,30.07,92.35,17.56,23.97,52.4,42.4,82.37,29.38,23.65-10.29,35.66-35.78,41.56-55.36,9.93-32.92,10.28-69.28,1-102.38-7.13-25.42-19.29-45.13-35.17-57-10.47-7.83-28.54-12.68-47.02-12.68ZM491.47,573.93h.04-.04Z"/>
        </g>
        <path class="cls-4" d="M522.63,633.76c-6.21,5.76-6.4,15.39-5.72,23.84,1.79,22.35,6.5,44.46,13.97,65.59,1.65,4.67,3.58,9.5,7.35,12.71,3.78,3.21,9.96,4.13,13.55.72,1.55-1.48,2.41-3.52,3.19-5.52,10.67-27.4,13.4-57.84,7.79-86.7-1.55-8-4.1-16.44-10.51-21.47-6.41-5.03-17.69-4.3-20.91,3.19"/>
        <circle class="cls-5" cx="412.58" cy="497.94" r="20.44"/>
        <circle class="cls-5" cx="368.01" cy="528.64" r="13.71"/>
        <circle class="cls-5" cx="402.04" cy="543.79" r="4.25"/>
        <circle class="cls-5" cx="651.85" cy="480.11" r="20.44"/>
        <circle class="cls-5" cx="607.28" cy="510.81" r="13.71"/>
        <circle class="cls-5" cx="641.31" cy="525.96" r="4.25"/>
      </g>
    </g>
  </g>
</svg>