<?xml version="1.0" encoding="utf-8"?>
<svg version="1.2" xmlns:xlink="http://www.w3.org/1999/xlink" width="100%" viewBox="0 0 1080 1080" baseProfile="tiny-ps" xmlns="http://www.w3.org/2000/svg">
  <title>Email Logo</title>
<path fill="#000000" stroke="none" d=" M577.000000,1081.000000   C384.688812,1081.000000 192.877609,1081.000000 1.033205,1081.000000   C1.033205,721.063660 1.033205,361.127350 1.033205,1.095518   C360.894745,1.095518 720.789551,1.095518 1080.842163,1.095518   C1080.842163,360.999939 1080.842163,720.999939 1080.842163,1081.000000   C913.126892,1081.000000 745.313416,1081.000000 577.000000,1081.000000  M901.997559,658.645142   C901.337402,651.227356 901.023499,643.759094 899.950439,636.401489   C897.038025,616.432800 894.833069,596.283936 890.491882,576.616028   C880.132080,529.680786 863.432312,484.811310 842.172424,441.779144   C829.585754,416.302521 816.006897,391.255524 801.675964,366.715027   C778.731934,327.425537 750.905762,291.666321 719.290344,258.950134   C710.299988,249.646744 700.262085,241.362457 690.866638,232.440201   C687.280151,229.034363 684.630737,224.496582 680.718201,221.606506   C669.130615,213.047028 657.592346,204.249207 645.169800,197.033768   C628.710022,187.473328 611.192200,180.600571 591.306946,182.915787   C579.125305,184.334045 575.126343,188.083038 574.987427,200.031509   C574.976135,201.004272 574.753235,201.974594 574.767883,201.860138   C563.835083,184.439194 553.034607,166.314178 541.304504,148.812149   C530.946350,133.357010 519.454834,118.666466 504.564117,107.119263   C483.562714,90.833496 458.075562,90.520180 441.057770,115.254219   C431.036377,129.819534 422.170715,144.944290 414.925262,161.071289   C406.658173,179.472214 400.264374,198.463593 395.945435,218.162964   C395.054840,222.225082 394.070496,226.266647 393.044373,230.683563   C382.276245,218.205963 378.986176,215.315552 369.625763,211.890091   C355.774750,206.821274 341.370667,208.864502 333.230469,219.518890   C318.537140,238.750458 304.054504,258.186340 290.432373,278.183014   C269.219635,309.322235 252.127625,342.758545 237.230850,377.364014   C222.804901,410.875824 210.649902,445.199646 202.294312,480.657623   C196.036499,507.213470 191.341064,534.189026 187.157425,561.164978   C184.093674,580.919861 181.974869,600.943298 181.277893,620.911377   C180.466370,644.161316 181.136246,667.504822 182.170074,690.763000   C182.888855,706.933228 184.761185,723.106812 187.080795,739.139587   C191.483887,769.572998 201.799728,798.118896 217.431076,824.556030   C235.793701,855.612610 259.554535,882.019531 287.850861,904.455505   C307.082550,919.704102 327.756073,932.616760 349.611786,943.600342   C371.493195,954.596741 394.404388,963.094177 417.950928,969.850647   C450.896118,979.303894 484.548309,985.036499 518.705505,986.755676   C538.429199,987.748413 558.312622,986.985046 578.052002,985.804871   C594.199585,984.839478 610.335266,982.659912 626.309998,980.014832   C667.594666,973.178833 706.898071,960.377380 743.538025,939.789551   C776.312866,921.373535 805.168518,898.138550 829.657227,869.681824   C849.033630,847.165833 864.955444,822.379883 877.062073,795.102417   C890.546753,764.720154 897.970459,732.892700 900.850647,699.976135   C902.021851,686.591248 901.661255,673.072327 901.997559,658.645142  z" />
<path fill="#14110B" stroke="none" d=" M901.997559,659.129761   C901.661255,673.072327 902.021851,686.591248 900.850647,699.976135   C897.970459,732.892700 890.546753,764.720154 877.062073,795.102417   C864.955444,822.379883 849.033630,847.165833 829.657227,869.681824   C805.168518,898.138550 776.312866,921.373535 743.538025,939.789551   C706.898071,960.377380 667.594666,973.178833 626.309998,980.014832   C610.335266,982.659912 594.199585,984.839478 578.052002,985.804871   C558.312622,986.985046 538.429199,987.748413 518.705505,986.755676   C484.548309,985.036499 450.896118,979.303894 417.950928,969.850647   C394.404388,963.094177 371.493195,954.596741 349.611786,943.600342   C327.756073,932.616760 307.082550,919.704102 287.850861,904.455505   C259.554535,882.019531 235.793701,855.612610 217.431076,824.556030   C201.799728,798.118896 191.483887,769.572998 187.080795,739.139587   C184.761185,723.106812 182.888855,706.933228 182.170074,690.763000   C181.136246,667.504822 180.466370,644.161316 181.277893,620.911377   C181.974869,600.943298 184.093674,580.919861 187.157425,561.164978   C191.341064,534.189026 196.036499,507.213470 202.294312,480.657623   C210.649902,445.199646 222.804901,410.875824 237.230850,377.364014   C252.127625,342.758545 269.219635,309.322235 290.432373,278.183014   C304.054504,258.186340 318.537140,238.750458 333.230469,219.518890   C341.370667,208.864502 355.774750,206.821274 369.625763,211.890091   C378.986176,215.315552 382.276245,218.205963 393.044373,230.683563   C394.070496,226.266647 395.054840,222.225082 395.945435,218.162964   C400.264374,198.463593 406.658173,179.472214 414.925262,161.071289   C422.170715,144.944290 431.036377,129.819534 441.057770,115.254219   C458.075562,90.520180 483.562714,90.833496 504.564117,107.119263   C519.454834,118.666466 530.946350,133.357010 541.304504,148.812149   C553.034607,166.314178 563.835083,184.439194 574.767883,201.860138   C574.753235,201.974594 574.976135,201.004272 574.987427,200.031509   C575.126343,188.083038 579.125305,184.334045 591.306946,182.915787   C611.192200,180.600571 628.710022,187.473328 645.169800,197.033768   C657.592346,204.249207 669.130615,213.047028 680.718201,221.606506   C684.630737,224.496582 687.280151,229.034363 690.866638,232.440201   C700.262085,241.362457 710.299988,249.646744 719.290344,258.950134   C750.905762,291.666321 778.731934,327.425537 801.675964,366.715027   C816.006897,391.255524 829.585754,416.302521 842.172424,441.779144   C863.432312,484.811310 880.132080,529.680786 890.491882,576.616028   C894.833069,596.283936 897.038025,616.432800 899.950439,636.401489   C901.023499,643.759094 901.337402,651.227356 901.997559,659.129761  M591.131287,220.811707   C592.658569,228.981064 594.298584,237.131363 595.683655,245.324753   C597.291016,254.833298 598.800354,264.362610 600.096375,273.917603   C600.648621,277.988495 598.282959,281.200897 594.450684,281.367004   C591.832397,281.480530 588.887085,279.441315 586.528625,277.750153   C585.444702,276.972870 585.387024,274.730408 584.916504,273.136810   C570.862122,225.535004 548.833069,182.031006 518.046265,143.031738   C509.666107,132.416138 501.033173,122.011353 489.102234,115.115486   C475.991547,107.537750 465.291290,109.229660 456.057709,121.071205   C450.249573,128.519760 445.025208,136.527725 440.373749,144.756607   C415.612701,188.561447 403.556091,235.751343 403.520599,286.042755   C403.515625,293.075226 400.807587,296.944458 396.032410,296.811340   C391.253113,296.678101 389.291138,293.163940 388.734802,286.339966   C387.804565,274.930420 386.938995,263.441071 384.784637,252.227661   C382.792175,241.856949 377.618683,232.805161 367.652344,227.682022   C359.705292,223.596878 350.390472,222.155060 342.042267,232.573578   C311.733826,270.398499 285.533936,310.796967 264.557831,354.488800   C208.249619,471.775146 185.745377,595.052612 200.105637,724.613525   C204.487488,764.147644 218.109360,800.503174 241.154266,833.114502   C275.588715,881.843262 321.602203,916.176819 376.187836,938.823792   C463.893158,975.211670 554.372864,981.715271 646.798767,960.456421   C723.638428,942.782532 786.789490,903.576660 833.758728,839.633850   C850.291138,817.127075 863.342102,792.704285 872.165283,765.311646   C872.414734,764.695923 872.705383,764.093506 872.908020,763.462769   C888.458801,715.062073 890.002686,665.714355 882.607361,615.829956   C875.937256,570.837646 862.558594,527.737305 845.182922,485.811951   C825.328003,437.904358 801.028687,392.402222 772.571472,349.005615   C743.863098,305.225922 707.585205,268.247406 669.895081,232.523483   C654.796143,218.212173 636.929138,207.631592 617.074036,201.122284   C610.265198,198.890060 602.779968,198.633087 595.570251,197.745407   C591.445251,197.237549 589.466064,199.172592 589.954712,203.600311   C590.556030,209.047806 590.811646,214.533447 591.131287,220.811707  z" />
<path fill="#FFE30F" stroke="none" d=" M871.826050,765.979797   C863.342102,792.704285 850.291138,817.127075 833.758728,839.633850   C786.789490,903.576660 723.638428,942.782532 646.798767,960.456421   C554.372864,981.715271 463.893158,975.211670 376.187836,938.823792   C321.602203,916.176819 275.588715,881.843262 241.154266,833.114502   C218.109360,800.503174 204.487488,764.147644 200.105637,724.613525   C185.745377,595.052612 208.249619,471.775146 264.557831,354.488800   C285.533936,310.796967 311.733826,270.398499 342.042267,232.573578   C350.390472,222.155060 359.705292,223.596878 367.652344,227.682022   C377.618683,232.805161 382.792175,241.856949 384.784637,252.227661   C386.938995,263.441071 387.804565,274.930420 388.734802,286.339966   C389.291138,293.163940 391.253113,296.678101 396.032410,296.811340   C400.807587,296.944458 403.515625,293.075226 403.520599,286.042755   C403.556091,235.751343 415.612701,188.561447 440.373749,144.756607   C445.025208,136.527725 450.249573,128.519760 456.057709,121.071205   C465.291290,109.229660 475.991547,107.537750 489.102234,115.115486   C501.033173,122.011353 509.666107,132.416138 518.046265,143.031738   C548.833069,182.031006 570.862122,225.535004 584.916504,273.136810   C585.387024,274.730408 585.444702,276.972870 586.528625,277.750153   C588.887085,279.441315 591.832397,281.480530 594.450684,281.367004   C598.282959,281.200897 600.648621,277.988495 600.096375,273.917603   C598.800354,264.362610 597.291016,254.833298 595.683655,245.324753   C594.298584,237.131363 592.658569,228.981064 591.446350,220.580460   C595.339172,223.570953 599.088318,226.623657 602.463440,230.045273   C613.796143,241.534088 625.199341,252.964844 636.188110,264.778137   C647.035400,276.439362 657.621521,288.359924 667.952148,300.482025   C690.480408,326.916809 710.916565,354.908478 729.752625,384.099182   C757.130188,426.526886 780.826355,470.864624 800.758972,517.277344   C820.142883,562.412415 836.223389,608.662598 848.434998,656.206238   C854.370911,679.316528 859.133362,702.734192 864.150940,726.072021   C866.997620,739.312683 869.286133,752.673218 871.826050,765.979797  M342.919708,496.484772   C332.672882,521.962463 340.949066,549.943176 363.316071,565.442383   C384.542145,580.150940 414.943359,578.127441 433.549683,560.869019   C443.419373,551.714294 449.795349,540.609985 451.763794,527.324768   C454.443817,509.237396 449.382568,493.202515 436.197968,478.161255   C442.148407,472.834808 447.790405,467.664856 453.572601,462.656769   C456.686188,459.960052 458.580475,457.058899 455.708710,453.263763   C453.475952,450.313019 450.018707,450.690887 446.215057,454.207062   C440.122742,459.839020 434.140167,465.589600 428.594940,470.832642   C420.434448,467.579132 412.021759,464.225098 403.405701,460.789978   C404.401215,455.655701 405.440765,449.928314 406.640747,444.234772   C407.435852,440.462128 406.704163,437.334106 402.674164,436.387238   C398.653381,435.442535 396.491699,437.743805 395.770447,441.656372   C394.745514,447.216156 393.737274,452.785248 392.442322,458.284515   C392.133087,459.597687 390.933136,461.359161 389.777405,461.709778   C381.302399,464.280762 372.734406,466.545258 363.616333,469.066620   C363.283508,468.583466 362.389496,466.968964 361.200897,465.612640   C354.528076,457.998230 347.961914,450.273254 340.909790,443.023315   C339.552856,441.628296 335.872711,441.347504 333.869171,442.120483   C332.479645,442.656525 331.498322,445.888824 331.523895,447.901367   C331.542145,449.337189 333.373322,450.921295 334.674622,452.141541   C342.709656,459.676270 350.011475,467.784851 354.985443,476.700012   C350.822723,483.405579 346.988770,489.581482 342.919708,496.484772  M681.820007,470.761108   C679.294617,467.307434 676.769165,463.853760 674.290955,460.464569   C678.289795,454.776398 682.260925,449.225616 686.123901,443.600525   C689.025513,439.375244 688.872986,435.945587 685.656006,434.078217   C681.668762,431.763763 679.206665,433.961731 676.999329,437.174622   C673.265442,442.609375 669.359253,447.925690 666.197876,452.350769   C656.344421,448.896118 647.338440,445.738617 637.665344,442.347198   C638.359924,437.737244 639.192078,432.197845 640.029785,426.659302   C640.606995,422.842682 639.530457,419.784363 635.371094,419.270813   C631.209412,418.756989 629.523560,421.523682 628.982544,425.304047   C628.252075,430.408264 627.513977,435.518921 626.492554,440.568848   C626.226501,441.884064 625.148560,443.643890 624.014465,444.077576   C615.560059,447.310699 606.997742,450.261536 598.228333,453.386749   C595.492188,450.819641 591.927063,447.364807 588.237732,444.048279   C585.286560,441.395447 581.903259,440.448761 579.088745,443.924652   C576.476318,447.151093 577.979309,449.963593 580.852539,452.529602   C584.267517,455.579376 587.368652,458.980499 590.255310,461.877625   C589.958862,462.969940 589.957520,463.161560 589.864990,463.284607   C589.365723,463.948120 588.823853,464.579895 588.332764,465.249084   C574.510071,484.083282 571.881165,504.447205 582.076172,525.410583   C592.195435,546.218384 609.775085,557.154114 632.893250,557.349792   C654.319580,557.531250 671.265381,547.929321 682.123596,529.365601   C693.267212,510.314026 692.864136,490.738098 681.820007,470.761108  M450.849396,660.747986   C452.253510,670.994080 453.514801,681.262146 455.092712,691.481445   C457.989014,710.238708 462.159760,728.630371 469.457611,746.297546   C479.990417,771.796204 496.405548,791.544556 521.753052,803.488159   C534.915955,809.690430 548.669495,811.863220 562.755798,809.633545   C584.616089,806.173340 599.597229,792.442993 610.824585,774.296753   C622.164917,755.967834 627.727600,735.516541 629.988098,714.355530   C632.261353,693.074768 632.380859,671.618469 627.880920,650.537781   C624.136841,632.998047 618.465576,616.057983 608.954529,600.620605   C594.308289,576.848389 572.838867,564.263306 545.262939,562.012878   C522.998962,560.196106 501.696350,563.921631 482.119843,575.070496   C476.999084,577.986755 471.760437,581.422668 467.976868,585.824219   C456.536530,599.133118 450.213379,614.778748 450.031403,632.504272   C449.937927,641.608582 450.490295,650.719543 450.849396,660.747986  z" />
<path fill="#FEF032" stroke="none" d=" M871.995667,765.645752   C869.286133,752.673218 866.997620,739.312683 864.150940,726.072021   C859.133362,702.734192 854.370911,679.316528 848.434998,656.206238   C836.223389,608.662598 820.142883,562.412415 800.758972,517.277344   C780.826355,470.864624 757.130188,426.526886 729.752625,384.099182   C710.916565,354.908478 690.480408,326.916809 667.952148,300.482025   C657.621521,288.359924 647.035400,276.439362 636.188110,264.778137   C625.199341,252.964844 613.796143,241.534088 602.463440,230.045273   C599.088318,226.623657 595.339172,223.570953 591.489014,220.175903   C590.811646,214.533447 590.556030,209.047806 589.954712,203.600311   C589.466064,199.172592 591.445251,197.237549 595.570251,197.745407   C602.779968,198.633087 610.265198,198.890060 617.074036,201.122284   C636.929138,207.631592 654.796143,218.212173 669.895081,232.523483   C707.585205,268.247406 743.863098,305.225922 772.571472,349.005615   C801.028687,392.402222 825.328003,437.904358 845.182922,485.811951   C862.558594,527.737305 875.937256,570.837646 882.607361,615.829956   C890.002686,665.714355 888.458801,715.062073 872.908020,763.462769   C872.705383,764.093506 872.414734,764.695923 871.995667,765.645752  z" />
<path fill="#14120C" stroke="none" d=" M343.037292,496.121094   C346.988770,489.581482 350.822723,483.405579 354.985443,476.700012   C350.011475,467.784851 342.709656,459.676270 334.674622,452.141541   C333.373322,450.921295 331.542145,449.337189 331.523895,447.901367   C331.498322,445.888824 332.479645,442.656525 333.869171,442.120483   C335.872711,441.347504 339.552856,441.628296 340.909790,443.023315   C347.961914,450.273254 354.528076,457.998230 361.200897,465.612640   C362.389496,466.968964 363.283508,468.583466 363.616333,469.066620   C372.734406,466.545258 381.302399,464.280762 389.777405,461.709778   C390.933136,461.359161 392.133087,459.597687 392.442322,458.284515   C393.737274,452.785248 394.745514,447.216156 395.770447,441.656372   C396.491699,437.743805 398.653381,435.442535 402.674164,436.387238   C406.704163,437.334106 407.435852,440.462128 406.640747,444.234772   C405.440765,449.928314 404.401215,455.655701 403.405701,460.789978   C412.021759,464.225098 420.434448,467.579132 428.594940,470.832642   C434.140167,465.589600 440.122742,459.839020 446.215057,454.207062   C450.018707,450.690887 453.475952,450.313019 455.708710,453.263763   C458.580475,457.058899 456.686188,459.960052 453.572601,462.656769   C447.790405,467.664856 442.148407,472.834808 436.197968,478.161255   C449.382568,493.202515 454.443817,509.237396 451.763794,527.324768   C449.795349,540.609985 443.419373,551.714294 433.549683,560.869019   C414.943359,578.127441 384.542145,580.150940 363.316071,565.442383   C340.949066,549.943176 332.672882,521.962463 343.037292,496.121094  M433.150269,506.450012   C433.566772,504.509186 434.269714,502.580139 434.350128,500.625488   C434.694458,492.254883 431.332703,485.645477 423.991913,481.558197   C416.508789,477.391663 408.863861,477.749817 401.881256,482.752258   C395.088959,487.618256 392.188995,494.491577 393.635925,502.796143   C395.238831,511.996033 402.039093,518.551514 410.841309,519.860107   C420.092255,521.235413 428.105286,516.654297 433.150269,506.450012  M383.109100,530.427307   C382.488495,521.776978 376.795044,515.992065 369.069977,516.162720   C361.834839,516.322571 355.868195,522.138123 355.489319,529.399475   C355.108368,536.701477 360.410187,543.058472 367.616516,543.939941   C375.357239,544.886902 381.611908,539.746826 383.109100,530.427307  M400.054810,548.205688   C401.529846,548.644714 403.693512,549.902405 404.341095,549.357666   C405.834625,548.101379 406.592194,545.970154 407.648285,544.193787   C405.865234,543.137451 403.938354,541.023865 402.328796,541.242798   C398.877258,541.712280 398.286072,544.505249 400.054810,548.205688  z" />
<path fill="#14120C" stroke="none" d=" M681.985962,471.087891   C692.864136,490.738098 693.267212,510.314026 682.123596,529.365601   C671.265381,547.929321 654.319580,557.531250 632.893250,557.349792   C609.775085,557.154114 592.195435,546.218384 582.076172,525.410583   C571.881165,504.447205 574.510071,484.083282 588.332764,465.249084   C588.823853,464.579895 589.365723,463.948120 589.864990,463.284607   C589.957520,463.161560 589.958862,462.969940 590.255310,461.877625   C587.368652,458.980499 584.267517,455.579376 580.852539,452.529602   C577.979309,449.963593 576.476318,447.151093 579.088745,443.924652   C581.903259,440.448761 585.286560,441.395447 588.237732,444.048279   C591.927063,447.364807 595.492188,450.819641 598.228333,453.386749   C606.997742,450.261536 615.560059,447.310699 624.014465,444.077576   C625.148560,443.643890 626.226501,441.884064 626.492554,440.568848   C627.513977,435.518921 628.252075,430.408264 628.982544,425.304047   C629.523560,421.523682 631.209412,418.756989 635.371094,419.270813   C639.530457,419.784363 640.606995,422.842682 640.029785,426.659302   C639.192078,432.197845 638.359924,437.737244 637.665344,442.347198   C647.338440,445.738617 656.344421,448.896118 666.197876,452.350769   C669.359253,447.925690 673.265442,442.609375 676.999329,437.174622   C679.206665,433.961731 681.668762,431.763763 685.656006,434.078217   C688.872986,435.945587 689.025513,439.375244 686.123901,443.600525   C682.260925,449.225616 678.289795,454.776398 674.290955,460.464569   C676.769165,463.853760 679.294617,467.307434 681.985962,471.087891  M640.141052,465.575897   C632.218323,473.153992 630.297913,483.102051 635.105103,491.663391   C639.698669,499.844452 649.651184,504.095856 658.529053,501.447784   C667.361206,498.813293 672.579407,492.748505 673.586609,483.638611   C674.478394,475.572052 671.287354,468.905243 664.459900,464.476685   C656.532227,459.334412 648.490173,459.831055 640.141052,465.575897  M595.041870,509.090912   C594.970703,510.252594 594.816284,511.416077 594.841919,512.575623   C595.018311,520.566223 601.046387,526.302063 609.007080,526.094910   C616.531189,525.899048 622.497375,519.729553 622.445801,512.198303   C622.402222,505.827240 617.870850,500.181335 611.750671,498.872406   C604.333618,497.286072 598.855164,500.401733 595.041870,509.090912  M644.042603,531.627625   C645.004883,529.932983 646.516724,528.299622 646.715149,526.519775   C646.827087,525.515442 644.940735,523.649170 643.654114,523.309570   C642.390259,522.975952 640.325867,523.661743 639.348389,524.637268   C636.510681,527.469604 638.416931,530.799194 644.042603,531.627625  z" />
<path fill="#16120B" stroke="none" d=" M450.800079,660.287720   C450.490295,650.719543 449.937927,641.608582 450.031403,632.504272   C450.213379,614.778748 456.536530,599.133118 467.976868,585.824219   C471.760437,581.422668 476.999084,577.986755 482.119843,575.070496   C501.696350,563.921631 522.998962,560.196106 545.262939,562.012878   C572.838867,564.263306 594.308289,576.848389 608.954529,600.620605   C618.465576,616.057983 624.136841,632.998047 627.880920,650.537781   C632.380859,671.618469 632.261353,693.074768 629.988098,714.355530   C627.727600,735.516541 622.164917,755.967834 610.824585,774.296753   C599.597229,792.442993 584.616089,806.173340 562.755798,809.633545   C548.669495,811.863220 534.915955,809.690430 521.753052,803.488159   C496.405548,791.544556 479.990417,771.796204 469.457611,746.297546   C462.159760,728.630371 457.989014,710.238708 455.092712,691.481445   C453.514801,681.262146 452.253510,670.994080 450.800079,660.287720  M489.108795,581.450500   C485.135437,584.137329 480.737885,586.366943 477.262970,589.591003   C463.184021,602.653809 458.657440,619.910828 458.241760,638.162537   C457.987427,649.332520 459.721100,660.592102 461.096100,671.745605   C463.913696,694.601929 467.794586,717.282043 476.059204,738.912720   C485.687073,764.111511 500.905792,784.506897 526.372986,795.772644   C535.874817,799.975891 545.862915,802.869141 556.168579,801.742004   C576.745789,799.491394 591.973267,788.408569 602.611145,770.898132   C617.014282,747.189697 622.055298,720.865723 622.869385,693.684265   C623.752197,664.207092 618.303101,635.884705 603.912659,609.784180   C597.637878,598.403320 589.771790,588.098206 578.501831,581.241760   C559.581299,569.730957 538.553101,569.109497 517.566956,571.995422   C508.071075,573.301208 499.039856,577.985718 489.108795,581.450500  z" />
<path fill="#FCFCFC" stroke="none" d=" M433.062958,506.827820   C428.105286,516.654297 420.092255,521.235413 410.841309,519.860107   C402.039093,518.551514 395.238831,511.996033 393.635925,502.796143   C392.188995,494.491577 395.088959,487.618256 401.881256,482.752258   C408.863861,477.749817 416.508789,477.391663 423.991913,481.558197   C431.332703,485.645477 434.694458,492.254883 434.350128,500.625488   C434.269714,502.580139 433.566772,504.509186 433.062958,506.827820  z" />
<path fill="#FAFAFA" stroke="none" d=" M383.071838,530.848389   C381.611908,539.746826 375.357239,544.886902 367.616516,543.939941   C360.410187,543.058472 355.108368,536.701477 355.489319,529.399475   C355.868195,522.138123 361.834839,516.322571 369.069977,516.162720   C376.795044,515.992065 382.488495,521.776978 383.071838,530.848389  z" />
<path fill="#EEEEEE" stroke="none" d=" M399.810303,547.907593   C398.286072,544.505249 398.877258,541.712280 402.328796,541.242798   C403.938354,541.023865 405.865234,543.137451 407.648315,544.193787   C406.592194,545.970154 405.834625,548.101379 404.341095,549.357666   C403.693512,549.902405 401.529846,548.644714 399.810303,547.907593  z" />
<path fill="#FCFCFC" stroke="none" d=" M640.425720,465.348267   C648.490173,459.831055 656.532227,459.334412 664.459900,464.476685   C671.287354,468.905243 674.478394,475.572052 673.586609,483.638611   C672.579407,492.748505 667.361206,498.813293 658.529053,501.447784   C649.651184,504.095856 639.698669,499.844452 635.105103,491.663391   C630.297913,483.102051 632.218323,473.153992 640.425720,465.348267  z" />
<path fill="#FBFBFB" stroke="none" d=" M595.123657,508.686401   C598.855164,500.401733 604.333618,497.286072 611.750671,498.872406   C617.870850,500.181335 622.402222,505.827240 622.445801,512.198303   C622.497375,519.729553 616.531189,525.899048 609.007080,526.094910   C601.046387,526.302063 595.018311,520.566223 594.841919,512.575623   C594.816284,511.416077 594.970703,510.252594 595.123657,508.686401  z" />
<path fill="#EBEBEB" stroke="none" d=" M643.673828,531.741211   C638.416931,530.799194 636.510681,527.469604 639.348389,524.637268   C640.325867,523.661743 642.390259,522.975952 643.654114,523.309570   C644.940735,523.649170 646.827087,525.515442 646.715149,526.519775   C646.516724,528.299622 645.004883,529.932983 643.673828,531.741211  z" />
<path fill="#E74E1E" stroke="none" d=" M489.453308,581.294006   C499.039856,577.985718 508.071075,573.301208 517.566956,571.995422   C538.553101,569.109497 559.581299,569.730957 578.501831,581.241760   C589.771790,588.098206 597.637878,598.403320 603.912659,609.784180   C618.303101,635.884705 623.752197,664.207092 622.869385,693.684265   C622.055298,720.865723 617.014282,747.189697 602.611145,770.898132   C591.973267,788.408569 576.745789,799.491394 556.168579,801.742004   C545.862915,802.869141 535.874817,799.975891 526.372986,795.772644   C500.905792,784.506897 485.687073,764.111511 476.059204,738.912720   C467.794586,717.282043 463.913696,694.601929 461.096100,671.745605   C459.721100,660.592102 457.987427,649.332520 458.241760,638.162537   C458.657440,619.910828 463.184021,602.653809 477.262970,589.591003   C480.737885,586.366943 485.135437,584.137329 489.453308,581.294006  M517.854614,654.528015   C520.046631,669.473877 521.471130,684.586975 524.677673,699.311890   C527.168091,710.747986 531.550354,721.826904 535.754272,732.811035   C537.717773,737.941284 542.336487,740.579285 548.191223,740.220337   C553.845581,739.873657 555.366760,735.481689 556.937317,731.244812   C567.551025,702.613831 569.971436,673.279236 563.583435,643.428833   C562.368225,637.750732 559.799744,631.928040 556.380859,627.249939   C550.090393,618.642822 539.517334,618.983765 532.601929,627.049683   C531.203308,628.681030 529.625488,630.244385 527.872986,631.471741   C520.143066,636.885559 517.379272,644.470459 517.854614,654.528015  z" />
<path fill="#13100B" stroke="none" d=" M517.852783,654.045288   C517.379272,644.470459 520.143066,636.885559 527.872986,631.471741   C529.625488,630.244385 531.203308,628.681030 532.601929,627.049683   C539.517334,618.983765 550.090393,618.642822 556.380859,627.249939   C559.799744,631.928040 562.368225,637.750732 563.583435,643.428833   C569.971436,673.279236 567.551025,702.613831 556.937317,731.244812   C555.366760,735.481689 553.845581,739.873657 548.191223,740.220337   C542.336487,740.579285 537.717773,737.941284 535.754272,732.811035   C531.550354,721.826904 527.168091,710.747986 524.677673,699.311890   C521.471130,684.586975 520.046631,669.473877 517.852783,654.045288  z" />
</svg>